<?xml version="1.0" encoding="utf-8"?>
<svg class="svg-hgf-logo" xmlns="http://www.w3.org/2000/svg" x="0" y="0" viewBox="0 0 737.4 100" xml:space="preserve" aria-labelledby="helmholtz-logo-header" role="img">
									<title id="helmholtz-logo-header">Helmholtz - Association of German Research Centres</title>
									<path fill="#005aa0" d="M53.5 0h19.2v100H53.5V59.7H19.2V100H0V0h19.2v40.5h34.3V0zm50.1 0c-.9 0-1.7.4-2.3 1l-6.2 6.2c-.7.6-1 1.4-1 2.3v81.1c0 .9.3 1.7 1 2.3l6.2 6.2c.6.7 1.4 1 2.3 1h53.6V80.8h-43.9V59.7h38.1V40.5h-38.1V19.2h43.9V0h-53.6zm82.5 100h44.6V80.8h-34.9V0h-19.2v90.5c0 .9.3 1.7 1 2.3l6.2 6.2c.6.7 1.4 1 2.3 1zM374 40.5V0h-19.2v100H374V59.7h34.3V100h19.2V0h-19.2v40.5H374zm127.6 31c0 .9-.4 1.6-1 2.3l-6.1 6.1c-.7.7-1.5 1-2.4 1H475c-.8 0-1.5-.3-2.3-1l-6.1-6.1c-.7-.7-1-1.4-1-2.3V28.6c0-.9.3-1.7 1-2.3l6.1-6.2c.7-.6 1.4-1 2.3-1h17.2c.9 0 1.7.4 2.4 1l6.1 6.2c.6.6 1 1.4 1 2.3v42.9zm4.5-66.7C503 1.8 499 0 494.8 0h-22.4c-4.2 0-8.3 1.7-11.4 4.8l-9.9 9.9c-3 3-4.7 7.1-4.7 11.3v48c0 4.2 1.7 8.3 4.7 11.3l9.9 10c3 3.1 7.2 4.7 11.4 4.7h22.4c4.2 0 8.3-1.7 11.3-4.7l10-10c3-3 4.7-7.1 4.7-11.3V25.9c0-4.2-1.7-8.3-4.7-11.3l-10-9.8zm42.7 95.2h45.4V80.8h-35.7V0h-19.2v90.5c0 .9.3 1.7 1 2.3l6.2 6.2c.6.7 1.5 1 2.3 1zm67-80.8V100H635V19.2h26.5V0h-72.2v19.2h26.5zM730.2 1c-.6-.6-1.4-1-2.3-1h-56v19.2h39.6L670 84.8v5.8c0 .9.4 1.7 1 2.3l6.2 6.2c.6.7 1.4 1 2.3 1h57.3V80.8h-41.5l42-66.4v-5c0-.8-.4-1.7-1-2.3L730.2 1zM314.3 0l-26.7 46.2L260.9 0h-18.4v100h19.2V38.2L279 68c.6 1 1.6 1.6 2.8 1.6h11.8c1.1 0 2.2-.6 2.8-1.6l17.1-29.6V100h19.2V0h-18.4z"></path>
									</svg>