<?xml version="1.0" encoding="utf-8"?>
<svg class="MTMainNav__logo__svg" width="177" height="20" viewBox="0 0 177 20" fill="none" xmlns="http://www.w3.org/2000/svg"><path d="M19.4624 19.7866V0.324219H28.8173V4.08766H23.5484V7.74357H28.7097V11.507H23.5484V16.0231H28.8173V19.7866H19.4624Z" fill="#004494"></path><path d="M135.054 19.7866V0.324219H144.409V4.08766H139.14V7.74357H144.301V11.507H139.14V16.0231H144.409V19.7866H135.054Z" fill="#004494"></path><path d="M62.9031 19.7866V0.324219H72.2579V4.08766H66.9891V7.74357H72.1504V11.507H66.9891V16.0231H72.2579V19.7866H62.9031Z" fill="#004494"></path><path d="M36.9892 4.08766V19.7866H32.9031V4.08766H29.5698V0.324219H40.3225V4.08766H36.9892Z" fill="#004494"></path><path d="M48.3871 4.08766V19.7866H44.3011V4.08766H40.9678V0.324219H51.7205V4.08766H48.3871Z" fill="#004494"></path><path d="M52.7957 0.324219H56.8817V16.0231H61.7204V19.7866H52.7957V0.324219Z" fill="#004494"></path><path d="M73.9784 0.324219H80.43C81.2902 0.324219 82.1504 0.539272 82.7956 0.861853C83.5483 1.18443 84.0859 1.61454 84.6235 2.25971C85.1612 2.79734 85.4838 3.4425 85.8063 4.19519C86.1289 4.94788 86.2364 5.70056 86.2364 6.56078C86.2364 7.09841 86.1289 7.63604 86.0214 8.2812C85.9139 8.92636 85.5913 9.46399 85.2687 9.8941C84.9461 10.4317 84.516 10.8619 83.9784 11.1844C83.4407 11.507 82.9031 11.8296 82.1504 11.8296L87.0967 19.6791H82.3655L78.0644 12.0446H77.9569V19.6791H73.8708V0.324219H73.9784ZM78.0644 8.92637H79.3547C80.2149 8.92637 80.8601 8.71131 81.2902 8.2812C81.7203 7.85109 81.9354 7.31346 81.9354 6.45325C81.9354 5.59303 81.7203 5.0554 81.2902 4.62529C80.8601 4.19519 80.2149 3.98013 79.3547 3.98013H78.0644V8.92637Z" fill="#004494"></path><path d="M104.301 4.08766V19.7866H100.215V4.08766H96.8818V0.324219H107.635V4.08766H104.301Z" fill="#004494"></path><path d="M107.742 10C107.742 8.49462 107.849 7.09677 108.172 5.91398C108.494 4.73118 108.924 3.65592 109.57 2.7957C110.215 1.93549 110.968 1.29032 111.828 0.752685C112.795 0.322577 113.763 0 115.054 0C116.236 0 117.312 0.21505 118.279 0.752685C119.14 1.18279 120 1.93549 120.537 2.7957C121.183 3.65592 121.613 4.73118 121.935 5.91398C122.258 7.09677 122.365 8.49462 122.365 10C122.365 11.5054 122.258 12.9032 121.935 14.086C121.613 15.3763 121.183 16.3441 120.537 17.2043C119.892 18.0645 119.14 18.7097 118.279 19.2473C117.312 19.6774 116.344 20 115.054 20C113.871 20 112.795 19.785 111.828 19.2473C110.86 18.8172 110.107 18.0645 109.57 17.2043C108.924 16.3441 108.494 15.2688 108.172 14.086C107.957 12.9032 107.742 11.5054 107.742 10ZM111.935 10C111.935 11.1828 112.043 12.1505 112.15 12.9032C112.258 13.6559 112.473 14.3011 112.688 14.8387C112.903 15.3763 113.226 15.6989 113.656 15.914C114.086 16.129 114.516 16.2366 115.054 16.2366C115.591 16.2366 116.021 16.129 116.451 15.914C116.881 15.6989 117.204 15.3763 117.419 14.8387C117.634 14.3011 117.849 13.6559 117.957 12.9032C118.064 12.1505 118.172 11.1828 118.172 10C118.172 8.81721 118.064 7.84947 117.957 7.09678C117.849 6.34409 117.634 5.69893 117.419 5.16129C117.204 4.62366 116.881 4.30108 116.451 4.08602C116.021 3.87097 115.591 3.76344 115.054 3.76344C114.516 3.76344 114.086 3.87097 113.656 4.08602C113.226 4.30108 112.903 4.62366 112.688 5.16129C112.473 5.69893 112.258 6.34409 112.15 7.09678C112.043 7.84947 111.935 8.81721 111.935 10Z" fill="#004494"></path><path d="M124.301 0.324219H128.387V16.0231H133.226V19.7866H124.301V0.324219Z" fill="#004494"></path><path d="M146.559 0.324219H152.688C153.979 0.324219 155.054 0.539269 156.022 1.0769C156.989 1.61454 157.742 2.2597 158.495 3.22744C159.14 4.08766 159.678 5.16293 160 6.34573C160.323 7.52853 160.538 8.81885 160.538 10.1092C160.538 11.3995 160.323 12.6898 160 13.8726C159.678 15.0554 159.14 16.1307 158.495 16.9909C157.85 17.8511 156.989 18.6038 156.022 19.0339C155.054 19.5715 153.979 19.7866 152.688 19.7866H146.559V0.324219ZM150.645 16.0231H152.688C153.226 16.0231 153.764 15.9156 154.194 15.593C154.624 15.2704 155.054 14.9479 155.269 14.4102C155.592 13.8726 155.807 13.2274 155.914 12.4748C156.022 11.7221 156.129 10.9694 156.129 10.0016C156.129 9.14142 156.022 8.2812 155.914 7.52852C155.807 6.77583 155.484 6.13066 155.269 5.59303C154.946 5.05539 154.624 4.6253 154.194 4.41024C153.764 4.08766 153.226 3.98013 152.688 3.98013H150.645V16.0231Z" fill="#004494"></path><path d="M161.613 10C161.613 8.49462 161.721 7.09677 162.043 5.91398C162.366 4.73118 162.796 3.65592 163.441 2.7957C164.086 1.93549 164.839 1.29032 165.699 0.752685C166.667 0.322577 167.635 0 168.925 0C170.108 0 171.183 0.21505 172.151 0.752685C173.118 1.18279 173.871 1.93549 174.409 2.7957C175.054 3.65592 175.484 4.73118 175.807 5.91398C176.129 7.09677 176.237 8.49462 176.237 10C176.237 11.5054 176.129 12.9032 175.807 14.086C175.484 15.3763 175.054 16.3441 174.409 17.2043C173.764 18.0645 173.011 18.7097 172.151 19.2473C171.183 19.6774 170.215 20 168.925 20C167.742 20 166.667 19.785 165.699 19.2473C164.839 18.8172 163.979 18.0645 163.441 17.2043C162.796 16.3441 162.366 15.2688 162.043 14.086C161.721 12.9032 161.613 11.5054 161.613 10ZM165.807 10C165.807 11.1828 165.914 12.1505 166.022 12.9032C166.129 13.6559 166.344 14.3011 166.559 14.8387C166.774 15.3763 167.097 15.6989 167.527 15.914C167.957 16.129 168.387 16.2366 168.925 16.2366C169.462 16.2366 169.893 16.129 170.323 15.914C170.753 15.6989 171.075 15.3763 171.29 14.8387C171.506 14.3011 171.721 13.6559 171.828 12.9032C171.936 12.1505 172.043 11.1828 172.043 10C172.043 8.81721 171.936 7.84947 171.828 7.09678C171.721 6.34409 171.506 5.69893 171.29 5.16129C171.075 4.62366 170.753 4.30108 170.323 4.08602C169.893 3.87097 169.462 3.76344 168.925 3.76344C168.387 3.76344 167.957 3.87097 167.527 4.08602C167.097 4.30108 166.774 4.62366 166.559 5.16129C166.344 5.69893 166.129 6.34409 166.022 7.09678C165.807 7.84947 165.807 8.81721 165.807 10Z" fill="#004494"></path><path d="M8.8172 12.5823L11.828 0.324219H17.6344V19.7866H13.6559V5.59303L10.4301 19.7866H7.31183L4.08602 5.59303V19.7866H0V0.324219H5.91398L8.8172 12.5823Z" fill="#004494"></path></svg>