<svg width="438" height="191" viewBox="0 0 438 191" fill="none" xmlns="http://www.w3.org/2000/svg">
<path d="M66.6131 120.741C90.6776 126.196 96.7735 140.473 96.7735 153.951C96.7735 174.807 81.0516 190.368 49.2869 190.368C15.9172 190.368 0.997925 173.684 0.997925 161.169C0.997925 154.752 5.64947 150.26 12.0677 150.26C26.3459 150.26 22.6557 171.116 49.2869 171.116C62.9235 171.116 70.4636 163.576 70.4636 155.876C70.4636 151.223 68.2183 146.089 59.2344 143.843L29.5541 136.304C5.64947 130.207 1.31823 117.052 1.31823 104.699C1.31823 79.0307 25.062 69.4054 47.362 69.4054C67.8959 69.4054 92.1219 80.9547 92.1219 96.3574C92.1219 102.933 86.5057 106.784 80.0885 106.784C67.8959 106.784 70.1427 89.6187 45.5969 89.6187C33.4041 89.6187 26.6661 95.2334 26.6661 103.255C26.6661 111.277 36.2921 113.843 44.6349 115.768L66.6131 120.741" fill="#333399"/>
<path d="M114.716 83.2013C114.716 75.34 119.849 70.0453 127.871 70.0453C135.892 70.0453 141.027 75.34 141.027 83.2013V176.572C141.027 184.432 135.892 189.727 127.871 189.727C119.849 189.727 114.716 184.432 114.716 176.572V83.2013Z" fill="#333399"/>
<path d="M162.483 87.5333C162.483 75.8213 168.579 72.132 177.884 72.132H239.649C247.349 72.132 252.964 74.3773 252.964 82.72C252.964 91.0626 247.349 93.308 239.649 93.308H188.792V118.336H233.391C240.289 118.336 245.745 120.26 245.745 128.443C245.745 136.624 240.289 138.549 233.391 138.549H188.792V166.464H240.932C248.632 166.464 254.248 168.709 254.248 177.053C254.248 185.395 248.632 187.64 240.932 187.64H177.884C168.579 187.64 162.483 183.951 162.483 172.239V87.5333" fill="#333399"/>
<path d="M423.585 147.052C410.911 147.052 411.393 169.192 390.697 169.192C367.917 169.192 359.573 150.903 359.573 129.887C359.573 104.86 373.211 90.5813 389.735 90.5813C413.799 90.5813 409.307 111.437 424.548 111.437C432.408 111.437 436.419 106.944 436.419 99.5654C436.419 88.3347 419.895 69.4054 389.735 69.4054C352.515 69.4054 333.264 97.3187 333.264 129.887C333.264 144.292 336.075 156.18 341.356 165.504C341.333 165.504 341.309 165.503 341.285 165.503H297.328V83.2013C297.328 75.34 292.196 70.0453 284.173 70.0453C276.152 70.0453 271.017 75.34 271.017 83.2013V172.239C271.017 183.951 277.115 187.64 286.419 187.64H341.285C347.464 187.64 352.667 185.052 354.347 180.148C363.712 186.923 375.975 190.368 390.697 190.368C416.207 190.368 436.419 173.844 436.419 157.159C436.419 150.741 430.003 147.052 423.585 147.052" fill="#333399"/>
<path d="M113.054 43.1294C113.054 34.9467 119.687 28.312 127.871 28.312C136.052 28.312 142.685 34.9467 142.685 43.1294C142.685 51.312 136.052 57.9453 127.871 57.9453C119.687 57.9453 113.054 51.312 113.054 43.1294Z" fill="#333399"/>
<path d="M127.521 3.07229e-05C124.935 -0.0839693 110.906 0.109359 100.631 13.328C90.6688 26.1427 70.4973 25.868 70.2943 25.864L70.1625 25.8614C70.1625 25.8614 59.9464 26.116 59.8052 26.12C59.662 26.12 1.28073 26.12 1.28073 26.12V37.5787H59.9484C59.9484 37.5787 69.9432 37.3294 70.1817 37.3227C72.5984 37.3587 96.5391 37.2614 109.678 20.3601C116.934 11.0254 126.755 11.4307 127.169 11.452L127.508 11.4707L127.94 11.448L127.888 11.452C128.305 11.4294 138.184 11.012 145.717 20.228C159.544 37.1454 182.072 37.3427 184.253 37.3214C184.423 37.3254 194.259 37.5787 194.259 37.5787H437.779V26.12C437.779 26.12 194.552 26.12 194.405 26.12C194.26 26.116 184.344 25.8614 184.344 25.8614L184.209 25.864C184.021 25.8667 165.232 25.9987 154.591 12.976C144.047 0.0773409 130.079 -0.0853026 127.521 3.07229e-05" fill="#333399"/>
</svg>
