<svg version="1.1" id="Layer_1" xmlns="http://www.w3.org/2000/svg" xmlns:xlink="http://www.w3.org/1999/xlink" x="0px" y="0px"
	 width="100%" viewBox="0 0 1024 1024" enable-background="new 0 0 1024 1024" xml:space="preserve">
<path fill="#000000" opacity="1.000000" stroke="none" 
	d="
M364.098511,703.858276 
	C372.755951,712.251221 379.020782,721.709167 384.962982,731.900574 
	C395.424988,749.843872 403.483368,769.483459 419.414764,784.003845 
	C443.630554,806.074829 471.359711,818.614929 504.576813,816.638184 
	C527.041443,815.301331 547.365845,807.874512 565.493652,794.223938 
	C581.562683,782.123657 593.768494,767.125305 602.016907,748.847595 
	C611.284485,728.311401 613.514648,706.989685 608.748779,684.996155 
	C601.975586,653.738342 584.723328,630.150085 557.464294,613.265808 
	C544.411621,605.180969 530.421143,599.935425 516.148071,594.842468 
	C499.584534,588.932312 483.462585,581.763672 466.830505,576.071899 
	C448.149658,569.679077 430.291351,561.352722 412.132538,553.784058 
	C378.098114,539.598572 345.832947,522.285706 318.700562,496.565216 
	C300.149109,478.979095 285.521545,458.583557 273.263336,436.330017 
	C263.896729,419.325867 258.066467,401.022339 253.692947,382.223511 
	C247.630402,356.164642 247.082886,329.807831 250.694305,303.419800 
	C254.969498,272.181854 264.343292,242.579926 279.774567,214.886810 
	C291.093414,194.573914 304.401337,175.799210 320.908447,159.494812 
	C333.579742,146.979156 347.415283,135.798950 362.667450,126.366119 
	C379.850098,115.739372 397.559509,106.227623 416.669403,99.673523 
	C429.710419,95.200882 443.275055,92.455490 456.806183,89.820747 
	C473.713470,86.528618 490.861145,86.333282 507.985382,86.942398 
	C521.722656,87.431053 535.243103,89.573792 548.792664,92.227867 
	C572.194702,96.811813 594.083313,105.318260 615.134033,115.958176 
	C632.033752,124.499992 648.039062,134.711731 662.198792,147.515930 
	C663.282410,148.495773 664.603027,149.475189 665.975525,149.832794 
	C677.830078,152.921432 689.524292,153.797821 700.647217,147.062332 
	C703.271912,145.472977 704.256897,143.841446 702.419434,141.049683 
	C695.205261,130.089020 700.423279,113.976891 714.774231,108.505058 
	C723.127075,105.320251 731.013916,100.864258 738.983459,96.735199 
	C749.020813,91.534798 764.573303,95.774521 770.395203,105.502708 
	C775.707214,114.378860 778.721497,124.354767 783.503296,133.436111 
	C797.449341,159.921646 809.746765,187.203369 823.055481,213.993286 
	C828.024353,223.995453 823.758667,236.681976 813.826172,241.784805 
	C804.654541,246.496765 795.505310,251.253326 786.297485,255.893677 
	C773.431091,262.377777 758.461609,256.751892 752.195068,243.082245 
	C751.018982,240.516907 750.019104,237.891266 747.721558,235.555374 
	C742.779114,238.131790 737.194397,240.004089 733.002991,243.531860 
	C729.122559,246.797882 728.924133,252.398132 729.411865,257.475403 
	C729.584656,259.275085 729.986145,261.158478 730.756653,262.778442 
	C737.430847,276.810822 735.055847,290.824860 727.088684,302.629761 
	C718.463806,315.409027 707.101562,326.185272 690.229736,328.379395 
	C667.166016,331.378754 643.861023,332.497284 621.393555,326.862915 
	C606.399902,323.102814 592.637451,315.335297 583.834961,300.477051 
	C574.773438,285.181549 567.014526,268.708344 552.233093,257.363800 
	C543.645081,250.772537 534.125977,246.331421 524.200623,242.383835 
	C509.297974,236.456635 494.018707,235.825607 478.652344,239.441788 
	C458.080078,244.283081 440.150269,253.710434 426.939453,270.930420 
	C417.417603,283.341980 411.052277,297.043030 409.044220,312.572021 
	C407.105194,327.566986 408.120239,342.061768 414.044617,356.464600 
	C424.842041,382.714294 444.502594,399.144775 469.846771,409.719269 
	C488.083130,417.328094 506.283020,425.160614 524.963928,431.530426 
	C545.070984,438.386566 564.871643,446.068665 584.676147,453.635010 
	C602.566162,460.470032 619.909973,468.903229 637.146118,477.454956 
	C661.449463,489.513123 682.382080,506.083038 701.735840,524.607910 
	C716.415649,538.659058 728.267883,555.134033 737.948181,573.197510 
	C744.875244,586.123474 750.675415,599.484253 756.273315,612.984375 
	C759.224854,620.102478 760.185059,627.724915 762.282471,635.050964 
	C767.511475,653.315430 767.584045,672.151001 767.866211,690.833801 
	C768.185425,711.969543 766.002808,733.022156 760.625610,753.568542 
	C754.414429,777.301819 744.949646,799.661133 733.099365,821.207520 
	C720.048889,844.936279 703.689819,865.994080 684.575867,884.895081 
	C669.875061,899.432068 653.447998,911.951721 635.613708,922.578003 
	C615.676575,934.457336 594.643127,943.618958 572.475098,950.573730 
	C555.706360,955.834656 538.657349,959.254944 521.292175,960.992615 
	C503.887268,962.734192 486.391602,962.488708 468.922913,961.229858 
	C449.474945,959.828430 430.559601,955.652649 412.031891,949.868225 
	C385.862152,941.697998 361.113007,930.362000 338.260071,915.072327 
	C307.540466,894.519531 282.025146,868.737244 261.890289,837.819641 
	C251.463791,821.809387 241.619293,805.293701 234.064560,787.735229 
	C226.030777,769.063416 226.593582,749.883972 234.822937,731.146667 
	C244.511536,709.086975 261.396271,694.683960 284.034607,687.698059 
	C313.218811,678.692078 340.040070,684.239624 364.098511,703.858276 
M291.144348,229.544998 
	C286.392853,240.162277 281.536713,250.764130 278.025604,261.854218 
	C273.262543,276.898621 270.115295,292.350555 268.351288,308.033234 
	C266.130188,327.779480 265.997467,347.530823 269.095398,367.231659 
	C271.476868,382.376465 275.651550,397.076324 280.901489,411.410706 
	C283.555878,418.658264 286.457947,426.011627 291.571350,432.104980 
	C293.035858,433.850250 294.402466,435.106689 297.067535,434.032776 
	C313.282196,427.498932 330.198425,424.220978 347.630341,423.291351 
	C360.641296,422.597504 373.666626,422.234070 386.431732,425.161499 
	C401.032196,428.509827 415.563904,432.206024 430.006165,436.184204 
	C448.228882,441.203705 466.496094,445.566864 485.603912,443.749908 
	C490.689941,443.266235 495.937927,443.316223 501.783569,441.074860 
	C498.606049,439.602966 496.571075,438.438171 494.393463,437.686584 
	C476.153412,431.390717 458.133453,424.591522 441.709442,414.246765 
	C420.614410,400.959900 405.063599,382.860352 396.633881,359.362732 
	C388.241425,335.969055 389.186890,312.315063 397.882233,289.127258 
	C403.626678,273.808594 412.692749,260.624756 424.439270,249.076050 
	C441.558258,232.245346 462.589172,223.287903 485.643707,220.245209 
	C509.423798,217.106796 531.766602,223.885178 551.935059,236.791519 
	C570.106079,248.419662 583.351135,264.524536 593.596252,283.472992 
	C599.858215,295.054565 608.873108,303.975830 621.577942,309.287933 
	C634.677246,314.764954 648.150940,314.263123 661.775452,314.740479 
	C677.856384,315.303955 691.780151,310.446198 704.449707,300.838348 
	C714.349365,293.331055 719.318542,281.117676 714.557800,269.636444 
	C710.792053,260.554810 711.300720,251.791092 712.929443,242.914780 
	C713.756592,238.407013 715.956299,233.602844 720.645813,231.251236 
	C725.991394,228.570740 731.277405,225.721970 736.659912,223.199677 
	C741.335449,221.008698 740.976440,219.120010 739.056519,215.280411 
	C730.943787,199.055374 723.010071,182.738068 715.237610,166.346970 
	C712.003235,159.526108 711.497437,159.163193 705.099731,162.968185 
	C695.476990,168.691269 684.906006,169.929352 674.343567,167.510666 
	C661.344482,164.533981 648.954529,159.726959 638.908997,150.284912 
	C636.631287,148.144043 633.821777,146.528366 631.133240,144.871811 
	C613.973816,134.298737 596.324280,124.841705 577.263428,117.903893 
	C556.748962,110.437019 535.698730,105.556007 514.109802,103.502235 
	C498.743134,102.040390 483.299805,102.755081 467.851868,105.054359 
	C447.985931,108.011215 428.542572,112.475555 410.247620,120.508339 
	C380.024689,133.778305 352.621948,151.381592 329.520966,175.455963 
	C314.152100,191.472412 302.562805,209.971390 291.144348,229.544998 
M686.797424,549.223999 
	C687.228210,544.172974 683.764038,543.437317 680.041992,543.422058 
	C652.104919,543.307739 624.167358,543.293518 596.230164,543.199341 
	C592.796997,543.187744 589.945312,544.384460 589.768372,547.925476 
	C589.579468,551.705811 592.564758,552.750732 595.940125,552.752075 
	C624.209839,552.763428 652.479553,552.794617 680.749268,552.817749 
	C683.152222,552.819763 685.463135,552.616089 686.797424,549.223999 
M603.501038,859.681946 
	C625.781738,860.165527 648.060852,858.169250 670.343689,859.649780 
	C673.788818,859.878662 676.447876,858.481262 676.647217,854.806885 
	C676.878174,850.549866 673.497559,850.231873 670.406433,850.223083 
	C642.940247,850.145203 615.473816,850.121094 588.007507,850.098877 
	C584.838379,850.096313 582.234192,851.065735 582.367859,854.835510 
	C582.490601,858.298279 584.659180,859.764099 588.019775,859.731995 
	C592.846863,859.685913 597.674500,859.695862 603.501038,859.681946 
M701.500000,696.096375 
	C686.679932,695.808167 671.851318,696.598450 657.031433,695.607056 
	C653.641541,695.380249 649.646057,696.068054 649.615784,700.410950 
	C649.587036,704.541565 653.307373,704.905762 656.649963,704.881042 
	C657.149780,704.877380 657.649658,704.892212 658.149536,704.892395 
	C686.141968,704.904297 714.134399,704.920349 742.126831,704.913513 
	C743.619202,704.913147 745.168640,704.936768 746.590698,704.564392 
	C748.760437,703.996460 749.916138,702.379456 749.801331,700.096802 
	C749.696350,698.009460 748.469055,696.614868 746.455078,696.304016 
	C744.328796,695.975830 742.145691,695.903442 739.987976,695.909058 
	C727.491882,695.941772 714.995972,696.030640 701.500000,696.096375 
M745.757019,150.199371 
	C752.013977,147.143204 758.303101,144.150497 764.515320,141.005890 
	C767.966431,139.258911 767.025574,136.323044 765.973022,133.649963 
	C765.048462,131.301987 763.358459,129.462540 760.585144,130.719666 
	C749.553345,135.720322 738.565796,140.820618 727.614380,145.995148 
	C724.320435,147.551529 724.418091,150.216095 725.802551,153.164642 
	C727.156921,156.049118 728.999268,157.139435 732.155762,155.755707 
	C736.408691,153.891327 740.762573,152.257385 745.757019,150.199371 
M747.450745,194.627457 
	C749.562988,202.240280 750.274475,202.760635 757.297974,199.862656 
	C764.189453,197.019165 770.891296,193.719208 777.712708,190.701721 
	C781.050415,189.225296 784.440735,187.897171 787.405945,185.689240 
	C789.977295,183.774582 790.502869,181.347809 788.912598,178.741211 
	C787.439880,176.327347 785.472717,174.951721 782.271973,176.441788 
	C772.059143,181.196136 761.745239,185.732803 751.490662,190.398193 
	C749.845825,191.146545 748.118164,191.915497 747.450745,194.627457 
M745.085022,165.655334 
	C743.272705,166.482941 741.412048,167.220032 739.658020,168.156708 
	C735.840149,170.195450 736.903076,173.313889 737.997253,176.381042 
	C739.186462,179.714645 741.498230,179.986969 744.368347,178.658401 
	C754.313904,174.054733 764.261230,169.454651 774.204224,164.845322 
	C777.994019,163.088440 777.904358,160.342056 776.430969,156.973801 
	C774.864929,153.393723 772.569153,152.894882 769.248596,154.459763 
	C761.446228,158.136765 753.595337,161.710678 745.085022,165.655334 
M779.145325,204.675217 
	C774.399048,206.687943 769.656555,208.709503 764.905212,210.710251 
	C761.866028,211.990005 759.319031,213.749634 758.615723,217.243729 
	C757.766846,221.460709 760.805725,224.715576 764.388672,223.142700 
	C775.348816,218.331375 786.246399,213.370544 797.074097,208.268021 
	C800.761658,206.530304 799.041565,203.535080 798.021790,200.923050 
	C797.007324,198.325058 795.334229,197.315277 792.566467,198.622177 
	C788.357605,200.609604 784.091614,202.475830 779.145325,204.675217 
M724.113342,132.482025 
	C735.646729,127.572662 746.705933,121.745308 757.811829,115.950943 
	C754.030151,109.200188 752.209778,108.550903 746.380676,111.314011 
	C743.374451,112.739021 740.204163,113.893509 737.385071,115.622002 
	C731.557007,119.195381 724.643677,120.550751 719.157349,124.783295 
	C716.283203,127.000641 715.887878,129.819229 717.454285,132.755997 
	C719.222656,136.071533 721.427124,133.228378 724.113342,132.482025 
M794.073547,234.501282 
	C797.708008,232.839966 801.382385,231.259613 804.966003,229.494919 
	C808.675110,227.668457 808.477844,224.441147 807.198181,221.341568 
	C805.644104,217.577484 803.023132,219.888824 800.949280,220.803314 
	C795.470886,223.219025 790.034119,225.740189 784.667847,228.395401 
	C780.200562,230.605789 775.362549,232.071823 771.256287,235.005585 
	C769.442078,236.301773 767.669861,237.705170 768.660034,240.320282 
	C769.557190,242.689896 771.752319,243.169464 773.917969,243.526566 
	C775.483459,243.784698 776.858521,243.035645 778.195068,242.379837 
	C783.273315,239.888229 788.326416,237.345505 794.073547,234.501282 
z"/>
</svg>